<?xml version="1.0" encoding="UTF-8" standalone="no"?>
<!-- Created with Inkscape (http://www.inkscape.org/) -->

<svg
   version="1.1"
   id="svg1"
   width="875.77881"
   height="957.46149"
   viewBox="0 0 875.77881 957.46149"
   sodipodi:docname="231.svg"
   inkscape:version="1.3.2 (091e20ef0f, 2023-11-25)"
   xmlns:inkscape="http://www.inkscape.org/namespaces/inkscape"
   xmlns:sodipodi="http://sodipodi.sourceforge.net/DTD/sodipodi-0.dtd"
   xmlns="http://www.w3.org/2000/svg"
   xmlns:svg="http://www.w3.org/2000/svg">
  <defs
     id="defs1" />
  <sodipodi:namedview
     id="namedview1"
     pagecolor="#ffffff"
     bordercolor="#000000"
     borderopacity="0.25"
     inkscape:showpageshadow="2"
     inkscape:pageopacity="0.0"
     inkscape:pagecheckerboard="0"
     inkscape:deskcolor="#d1d1d1"
     showgrid="false"
     inkscape:zoom="0.62890625"
     inkscape:cx="438.06211"
     inkscape:cy="477.81366"
     inkscape:window-width="1920"
     inkscape:window-height="1011"
     inkscape:window-x="0"
     inkscape:window-y="0"
     inkscape:window-maximized="1"
     inkscape:current-layer="layer1" />
  <g
     inkscape:groupmode="layer"
     id="layer1"
     inkscape:label="Layer 1"
     transform="translate(-202.02347,-161.47713)">
    <path
       style="fill:#000000"
       d="m 610.1589,1105.2193 c -6.551,-7.5456 -15.10393,-17.4583 -19.00652,-22.0282 -10.08905,-11.8141 -24.15599,-26.7596 -24.13243,-25.6396 0.011,0.5217 1.98292,7.361 4.3821,15.1985 2.39919,7.8375 4.11777,14.25 3.81908,14.25 -0.2987,0 -3.95815,-2.5529 -8.13211,-5.6731 -19.956,-14.9181 -37.95157,-36.85 -48.19227,-58.7338 -1.72229,-3.6805 -3.24019,-6.5571 -3.37312,-6.3924 -0.13293,0.1646 0.60503,6.1493 1.63991,13.2993 1.03489,7.15 1.75109,13.675 1.59156,14.5 -0.18261,0.9443 -5.24796,-3.3159 -13.67349,-11.5 -31.40931,-30.5094 -43.86159,-47.87164 -53.6343,-74.78227 -1.8411,-5.06975 -3.36992,-8.23639 -3.39738,-7.03698 -0.15424,6.73681 7.65215,57.88765 12.33416,80.81885 1.34752,6.5998 2.35242,12.0972 2.2331,12.2165 -0.11931,0.1194 -3.74294,-8.318 -8.05251,-18.7496 -4.30957,-10.4316 -7.90792,-18.9665 -7.99635,-18.9665 -0.0884,0 0.0307,4.3784 0.26478,9.7298 0.5073,11.599 1.1213,11.7695 -11.81767,-3.2808 C 412.91506,986.74227 395.28185,960.41877 379.31383,929.29553 374.74122,920.38307 371,913.6868 371,914.41493 c 0,0.72813 1.15848,6.89514 2.5744,13.70447 4.54884,21.87597 11.4126,59.22694 10.96586,59.67368 C 383.66668,988.66666 362.53137,967.20637 354.70592,957.5 337.05411,935.60541 322.55805,909.4052 313.48656,883 l -4.63793,-13.5 0.46359,9 c 0.25497,4.95 1.13639,10.9125 1.95871,13.25 0.82233,2.3375 1.31286,4.25 1.09007,4.25 -0.83617,0 -15.36017,-22.84926 -20.02279,-31.5 -6.67523,-12.3848 -13.4646,-27.18934 -17.65612,-38.5 -9.70325,-26.18382 -21.4326,-68.09333 -27.70745,-99 -1.7308,-8.525 -3.27667,-15.63103 -3.43528,-15.79117 -0.31797,-0.32106 -3.07958,17.83056 -4.15193,27.28993 -0.37402,3.29932 -0.9517,13.87432 -1.28373,23.5 L 237.5,779.5 232.64903,748 c -2.66803,-17.325 -4.98658,-31.64355 -5.15234,-31.819 -0.40995,-0.43395 -2.20767,8.13112 -3.06259,14.59144 -0.38374,2.89985 -1.01352,5.46763 -1.3995,5.70617 -0.38598,0.23855 -1.47928,-4.00853 -2.42957,-9.43796 -7.97746,-45.57911 -7.07907,-95.09862 2.53776,-139.88286 1.10336,-5.13822 1.86011,-9.48751 1.68166,-9.6651 -0.17845,-0.17758 -3.67158,6.82929 -7.76252,15.57082 -4.09094,8.74152 -7.57186,15.75989 -7.73539,15.59636 -0.16353,-0.16352 3.05272,-10.39139 7.14722,-22.72859 l 7.44455,-22.43128 -6.70916,7.48127 c -3.69003,4.1147 -8.61637,9.5147 -10.94742,12 l -4.23826,4.51873 3.06801,-8.5 c 8.85038,-24.52019 22.09359,-53.63207 33.66315,-74 3.28037,-5.775 5.85803,-10.63201 5.72814,-10.79336 -0.12989,-0.16135 -7.02713,4.45115 -15.32719,10.25 C 220.85552,510.25549 213.84979,515 213.58731,515 c -1.87102,0 11.788,-25.23867 22.03367,-40.71307 7.52022,-11.35806 22.54077,-30.34834 28.25626,-35.72402 4.08465,-3.84179 3.93986,-4.62319 -0.62724,-3.38516 -5.66145,1.53469 -14.77606,6.65488 -20.00014,11.23521 l -4.66146,4.08704 3.37236,-6 c 10.40455,-18.51143 20.11656,-31.46398 35.53924,-47.39736 6.6,-6.81855 11.52655,-12.56387 10.94788,-12.76738 -4.47185,-1.57266 -14.6654,-8.88668 -19.32588,-13.8666 C 264.207,365.21677 254.81875,350 256.49351,350 c 0.33141,0 2.94345,1.48809 5.80453,3.30686 7.85471,4.99321 8.60154,5.22658 4.01166,1.25357 -8.88846,-7.69385 -17.21709,-21.0212 -21.19491,-33.91577 -2.81699,-9.13159 -2.6787,-9.80546 0.98881,-4.81842 2.81345,3.82569 10.6272,10.17376 12.52274,10.17376 0.4213,0 -0.60705,-1.4625 -2.28521,-3.25 C 245.73021,311.44772 237.38706,291.86411 235.5723,274 l -0.66032,-6.5 2.98639,6 c 1.64251,3.3 4.8592,7.8 7.14821,10 l 4.16181,4 -3.52094,-7.05972 c -4.34181,-8.7056 -6.37579,-15.56133 -7.69605,-25.94028 -0.98187,-7.71874 -0.34913,-23.17496 0.89892,-21.9584 0.33532,0.32687 1.57552,3.60123 2.75599,7.27635 l 2.1463,6.68205 0.1037,-7.14466 c 0.1961,-13.51204 6.48809,-27.19224 16.67568,-36.25671 5.0509,-4.49407 4.82414,-4.75101 -2.22909,-2.52573 -3.37278,1.06411 6.05924,-6.68367 12.59845,-10.34879 3.54275,-1.98564 10.06775,-4.88659 14.5,-6.44653 7.68164,-2.70359 7.82473,-2.80776 3.05865,-2.22681 -2.75,0.33521 -8.05355,1.62446 -11.78567,2.86502 -7.73127,2.56987 -7.62111,2.16444 0.78567,-2.89132 8.21797,-4.9422 17.87537,-7.71463 27.46539,-7.88471 10.08786,-0.1789 7.81575,-1.80951 -3.4284,-2.46042 -8.98191,-0.51996 -8.57675,-0.90736 4.46301,-4.26748 14.77684,-3.80774 36.23686,-3.55123 52.61278,0.62887 28.36094,7.23939 53.91813,27.99989 71.23513,57.86539 l 4.65209,8.02316 0.30226,-5.21464 c 0.38566,-6.65354 2.28452,-6.71835 12.54191,-0.42807 3.10789,1.90589 4.61734,2.22678 7.88098,1.67539 4.55101,-0.76889 3.42921,-2.3886 -1.72515,-2.49084 l -3,-0.0595 3.5,-1.84134 c 1.925,-1.01274 6.2,-2.43272 9.5,-3.15551 4.0547,-0.8881 5.18946,-1.41792 3.5,-1.63416 -1.375,-0.17599 -4.075,-0.60273 -6,-0.9483 -3.34532,-0.60055 -3.38951,-0.66157 -1,-1.38063 1.375,-0.41377 5.65,-0.81881 9.5,-0.90009 l 7,-0.14778 -5.90569,-3.04666 c -4.28379,-2.20994 -5.5268,-3.28083 -4.52606,-3.89932 2.99988,-1.85403 15.83872,-3.20012 25.92417,-2.71803 10.41058,0.49763 10.46645,0.4882 6.05197,-1.02063 -4.28259,-1.46376 -4.36025,-1.56037 -2,-2.4879 1.35059,-0.53075 6.28061,-0.97245 10.95561,-0.98155 7.95734,-0.0155 11.70843,0.81274 21.5,4.7472 1.40969,0.56645 0.96696,-0.31236 -1.5,-2.97747 l -3.5,-3.78111 9,0.60326 c 17.70137,1.1865 35.74813,5.89049 51.50856,13.426 4.39529,2.10152 7.99144,3.59499 7.99144,3.31884 0,-0.27616 -1.6875,-2.25911 -3.75,-4.40656 -2.74277,-2.85573 -3.21281,-3.74728 -1.75,-3.31927 7.34435,2.1489 43.72599,11.78029 51.76215,13.70311 l 9.76215,2.3358 9.16649,-4.44975 c 5.04157,-2.44737 14.3736,-7.51657 20.73785,-11.2649 l 11.57136,-6.81514 -5.5,5.63116 -5.5,5.63116 5.5,-2.23997 c 8.57539,-3.49248 21.53191,-6.56751 32.78922,-7.78201 C 729.83412,203.7027 761,203.62512 761,205 c 0,0.55 -0.7875,1.02749 -1.75,1.06109 -0.9625,0.0336 -4.225,0.92681 -7.25,1.9849 -4.0691,1.4233 -4.6007,1.7934 -2.04332,1.42257 8.28097,-1.20078 37.14979,-2.26619 43.54332,-1.60698 l 7,0.72173 -4.25,0.79625 C 791.73627,210.22521 790.4275,212 794.31763,212 c 3.37678,0 15.46598,3.34488 20.68237,5.72246 l 4.5,2.05106 -4.5,0.81715 c -4.36683,0.79296 -4.41122,0.8372 -1.5,1.49492 1.65,0.37278 5.25,0.73367 8,0.80199 4.98004,0.12371 23.52218,2.66898 26.63679,3.65642 1.18981,0.37721 2.5204,-1.05989 4.87253,-5.26254 13.74089,-24.55149 38.06422,-44.53327 65.28087,-53.62867 18.81391,-6.28733 42.70455,-7.92963 61.20981,-4.20771 12.44049,2.50213 13.02476,3.16909 3.3614,3.83719 -4.59877,0.31795 -10.3864,1.27854 -12.8614,2.13465 l -4.5,1.55657 5.67674,-0.48687 c 11.54005,-0.98974 27.30742,2.72921 37.75696,8.90551 l 3.5663,2.10787 -4,0.25031 c -2.2,0.13768 -6.025,0.53379 -8.5,0.88025 l -4.5,0.62992 6.3443,1.32618 c 8.441,1.7645 14.1668,4.65788 19.9095,10.06082 l 4.7462,4.46536 -4.8345,-0.63036 -4.8344,-0.63036 5.1148,6.67339 c 2.8132,3.67036 6.029,8.46505 7.1461,10.65486 2.8234,5.53423 5.905,18.13979 5.9233,24.22959 0.018,5.8316 1.8598,4.58658 2.0863,-1.40996 0.1099,-2.90824 0.2958,-2.57009 1.0996,2 1.2613,7.17157 0.2511,35.2901 -1.6334,45.46303 -0.8113,4.37967 -1.3267,8.11138 -1.1454,8.2927 0.6239,0.62385 4.615,-6.93706 6.6468,-12.59182 l 2.0351,-5.66391 -0.5777,6.7273 c -1.0119,11.78429 -5.9303,24.89043 -13.144,35.02501 -3.9846,5.59811 -4.3324,6.9886 -0.9541,3.81484 7.0133,-6.58865 3.5306,3.10081 -5.1814,14.41561 -3.7086,4.81656 -4.091,5.645 -1.962,4.25 1.4545,-0.95302 2.9388,-1.73276 3.2984,-1.73276 0.8242,0 -3.4847,5.78739 -9.8652,13.25 -4.8126,5.62889 -4.7147,7.10621 0.2817,4.25 4.1787,-2.38877 4.3247,-1.73761 0.9529,4.25 -4.4374,7.88004 -10.9044,16.12198 -16.8309,21.45038 l -4.9614,4.46075 6.2279,8.41943 c 3.4254,4.63069 10.2518,12.64744 15.1697,17.81499 6.503,6.83293 8.2599,9.18448 6.4418,8.62169 -4.1233,-1.27636 -9.5242,-4.24905 -13.1165,-7.21944 -3.2883,-2.71911 -3.3343,-2.72749 -1.6329,-0.2978 12.4174,17.73304 36.2225,54.96385 41.6778,65.18343 4.9783,9.32602 15.0716,32.00058 15.0716,33.85833 0,2.74246 -17.3589,-8.29922 -25.799,-16.41034 l -4.2991,-4.13142 6.4345,13.5 c 3.539,7.425 10.3597,24.525 15.1572,38 4.7975,13.475 9.7983,27.16325 11.1129,30.41833 1.3146,3.25507 2.2251,6.0834 2.0233,6.28516 -0.8784,0.87845 -12.0913,-4.1727 -16.1642,-7.2816 -2.4561,-1.87477 -4.4656,-3.17382 -4.4656,-2.88677 0,0.28705 1.2959,3.09658 2.8798,6.2434 7.5836,15.06675 14.8624,34.72832 19.6013,52.94704 2.576,9.90331 6.9296,34.19708 6.2501,34.87656 -1.0429,1.04296 -9.2108,-6.24075 -11.9629,-10.66796 -1.687,-2.71379 -3.1601,-4.93416 -3.2735,-4.93416 -0.1135,0 0.36,3.2625 1.0522,7.25 4.8885,28.16129 4.5058,56.65655 -1.155,85.98414 -2.2924,11.87655 -7.263,29.92605 -9.189,33.36764 -0.5769,1.03088 -1.8705,-2.38422 -4.0895,-10.79699 -4.3781,-16.59761 -18.1784,-53.07319 -19.558,-51.6936 -0.2195,0.21946 -1.3548,7.59673 -2.5229,16.39392 -6.9146,52.07406 -21.6405,103.44413 -44.00133,153.49489 -8.95088,20.03496 -31.50095,62.0136 -29.54489,55 1.49007,-5.34273 1.60263,-25.4108 0.17388,-31 l -1.40594,-5.5 -1.83022,4.5 c -4.40289,10.82548 -17.85247,36.32703 -23.99682,45.5 -11.98674,17.89513 -33.36442,43.27755 -32.00452,38 1.60307,-6.22123 3.56444,-20.6513 4.15836,-30.5935 0.61594,-10.311 -0.90879,-34.88413 -2.31106,-37.24564 -0.27405,-0.46153 -2.52705,3.13847 -5.00666,8 -10.63353,20.84813 -26.09487,45.28563 -41.37792,65.40007 -11.01248,14.49387 -28.1898,34.54547 -28.56418,33.34387 -0.15507,-0.4976 3.93196,-13.8366 9.08228,-29.64206 5.15032,-15.8055 9.04598,-28.54058 8.65702,-28.3002 -0.38895,0.24039 -3.58244,5.16392 -7.09664,10.94119 -3.5142,5.77726 -6.48163,10.41193 -6.59429,10.29927 -0.11266,-0.11266 0.20954,-3.80442 0.716,-8.20392 1.1811,-10.2598 -0.53574,-27.25809 -3.68174,-36.45256 -0.27353,-0.79941 -2.29803,3.92559 -4.4989,10.5 C 810.58142,978.42354 798.55459,1000.3825 784.24717,1018 777.6985,1026.0637 764,1039.9959 764,1038.5925 c 0,-0.4696 0.70815,-5.3081 1.57367,-10.7522 0.86552,-5.444 1.42802,-10.327 1.25,-10.8509 -0.17802,-0.524 -2.89652,2.5266 -6.04111,6.779 -5.90572,7.9862 -23.78256,26.5032 -23.78256,24.6342 0,-0.5807 1.3654,-5.9184 3.03423,-11.8616 1.66883,-5.9432 2.86701,-10.9731 2.66262,-11.1775 -0.20438,-0.2044 -7.06944,8.1556 -15.25567,18.5777 -8.18624,10.4221 -14.99815,18.8352 -15.13758,18.6957 -0.13943,-0.1394 0.35834,-4.0522 1.10615,-8.6952 0.74781,-4.6429 1.26371,-8.552 1.14644,-8.6869 -0.11727,-0.1348 -2.38976,3.1907 -5.04998,7.3901 -2.66021,4.1994 -7.57488,10.5723 -10.92148,14.162 -6.20135,6.6519 -18.64152,17.4696 -19.31506,16.7961 -0.20447,-0.2045 0.81793,-4.5071 2.272,-9.5613 1.45407,-5.0543 2.46339,-9.37 2.24293,-9.5904 -0.22046,-0.2205 -7.34968,7.8684 -15.84271,17.9753 -8.49304,10.1069 -15.59406,18.2309 -15.78005,18.0533 -0.18599,-0.1776 0.82651,-2.3103 2.25,-4.7393 1.42349,-2.429 2.58816,-4.7227 2.58816,-5.0972 0,-0.3745 -3.03334,2.5346 -6.74075,6.4647 -7.14535,7.5744 -14.42576,13.491 -22.97436,18.6706 l -5.2151,3.1599 z M 663.5,948.00207 c 8.73762,-2.78334 14.81491,-5.83275 20.93605,-10.50512 2.61826,-1.99856 5.01149,-3.38274 5.31828,-3.07595 0.30679,0.30679 -0.84384,2.81257 -2.55696,5.5684 -1.71312,2.75583 -2.77874,5.0106 -2.36805,5.0106 0.41069,0 4.3296,-2.88493 8.70869,-6.41095 6.90684,-5.56134 11.30939,-10.27525 16.80495,-17.99342 1.23744,-1.73791 1.3155,-1.62865 0.893,1.25 -0.25463,1.7349 -0.22627,3.15437 0.063,3.15437 0.77496,0 8.68596,-13.97786 14.6644,-25.91038 2.8687,-5.7257 8.71954,-19.0007 13.00187,-29.5 7.64193,-18.73629 20.58577,-49.43821 45.99184,-109.08962 18.96732,-44.53376 23.53077,-59.79148 24.67502,-82.5 0.87449,-17.35497 -2.3928,-44.63152 -8.05647,-67.25832 -1.20575,-4.81707 -1.84424,-8.41028 -1.41886,-7.9849 1.75072,1.75072 11.17699,27.25446 14.4365,39.05943 5.74629,20.81137 8.43803,38.93291 9.21881,62.06345 l 0.68791,20.37966 5.81172,-8.07746 C 842.65404,699.02782 851.18089,678.98489 855.06401,658 l 1.94295,-10.5 -0.49891,11.5928 c -1.19248,27.7088 -9.8527,57.22118 -26.08925,88.9072 l -6.40525,12.5 5.04532,-5.5 c 6.56836,-7.16029 18.64935,-25.18558 24.48272,-36.52914 4.03307,-7.84269 4.89924,-8.38285 2.90844,-1.81376 -0.30718,1.01359 0.83104,-0.76027 2.52938,-3.94193 6.80664,-12.75156 17.02893,-40.14383 23.59073,-63.21517 2.16452,-7.61048 3.24898,-10.35393 2.96466,-7.5 -1.47755,14.83184 -1.50169,15.55619 -0.4331,13 0.57481,-1.375 2.01078,-6.775 3.19104,-12 1.83748,-8.13445 2.15035,-12.6893 2.1766,-31.68767 0.0169,-12.20322 0.33105,-21.37683 0.6982,-20.38579 1.76939,4.77606 4.94772,28.0235 5.47874,40.07346 0.97671,22.16341 -2.48594,47.46013 -9.30376,67.96956 -10.39626,31.27408 -36.49895,72.25192 -65.27693,102.47628 l -7.56559,7.94585 7,-6.12362 c 8.18158,-7.15726 26.5264,-27.12425 36.04947,-39.2372 29.2123,-37.15682 52.3738,-82.57908 59.35808,-116.40774 1.59942,-7.74688 2.02516,-8.75837 2.82222,-6.70513 0.78811,2.03015 1.28275,0.74695 3.08382,-8 4.91481,-23.86896 5.68994,-32.14341 5.61301,-59.918 -0.082,-29.61927 -0.974,-36.16893 -6.4206,-47.14662 l -3.13925,-6.32719 2.61694,2.45849 2.61693,2.45848 -1.84098,-3.97158 c -8.40588,-18.13416 -18.93208,-34.17621 -32.71137,-49.85252 -7.04697,-8.01714 -28.00626,-26.77029 -32.53968,-29.11462 -4.05109,-2.0949 -11.83502,-2.95282 -15.00859,-1.65421 -2.26783,0.92799 -2.08209,1.03541 2,1.15667 6.02715,0.17903 10.08773,1.82277 4.75,1.92281 -3.58573,0.0672 -5.56918,2.07029 -2.05,2.07029 2.35775,0 0.86671,1.30349 -5.70145,4.9843 l -5.49855,3.0814 4,-0.59485 c 3.78427,-0.56276 3.89307,-0.50896 2.01738,0.99749 C 838.93404,455.54314 830.58547,458 826.1185,458 c -4.28334,0 -3.03989,1.85963 1.922,2.87445 l 3.2258,0.65974 -6.38315,6.58435 c -3.51073,3.62138 -8.85815,7.99697 -11.88315,9.72352 -6.28126,3.58509 -5.41812,4.04869 2.23927,1.20273 l 5.26073,-1.95521 -3.5,2.99495 c -7.89604,6.75662 -20.81568,10.4063 -31.74179,8.96676 -5.1368,-0.67679 -5.2069,-0.6518 -3.5,1.24766 4.99704,5.56075 18.31143,13.45916 29.24179,17.34692 l 6.5,2.31195 -6.5,0.006 c -10.65692,0.0103 -23.82689,-3.83384 -33.35949,-9.7373 -6.40472,-3.9664 -3.15206,-0.74916 6.6387,6.56641 22.7036,16.9639 46.15113,27.78896 65.50798,30.24317 12.50103,1.58498 31.98559,-1.34759 43.96281,-6.61672 2.8875,-1.2703 5.25,-1.96284 5.25,-1.53898 0,1.11393 -4.01415,4.6084 -7.5,6.52904 l -3,1.65294 4.5,-0.64322 c 2.475,-0.35378 6.075,-1.25986 8,-2.01351 3.36266,-1.3165 3.28418,-1.17155 -2,3.69408 -11.66339,10.73956 -27.04254,17.39828 -43.30294,18.7489 l -9.19706,0.76392 4.25388,1.23316 c 5.77623,1.67447 19.88006,7.76558 22.56504,9.7453 2.03176,1.49808 1.29108,1.57053 -10.81892,1.05822 -12.53017,-0.53009 -21.71127,-2.25421 -32.37573,-6.07984 -2.40665,-0.86334 -4.61472,-1.5697 -4.90683,-1.5697 -0.2921,0 2.57697,2.22259 6.37573,4.93908 3.79876,2.71649 8.70683,6.56369 10.90683,8.54932 3.50078,3.15967 3.68799,3.5323 1.5,2.9857 -5.80682,-1.45064 -19.37057,-8.73351 -31.5,-16.9135 -17.087,-11.52335 -20.77612,-13.29614 -12.5,-6.00682 8.68991,7.65376 32.24686,31.5327 31.67332,32.10624 -0.25041,0.2504 -11.70145,-6.96325 -25.44677,-16.03034 -26.36808,-17.39368 -30.02339,-20.59124 -37.57634,-32.87073 -2.11739,-3.44242 -3.59265,-5.35895 -3.27837,-4.25895 1.30751,4.57628 5.69935,33.09326 7.31537,47.5 2.51424,22.41423 2.53465,80.36246 0.0345,98 -6.54816,46.19499 -12.96601,76.46036 -30.85365,145.5 -8.63564,33.3304 -12.79448,45.82949 -19.05911,57.28083 -14.14603,25.858 -40.74196,50.06287 -66.05862,60.11972 C 648.40718,946.21481 637.53374,949 632.93795,949 631.32208,949 630,949.5087 630,950.13045 c 0,2.07153 25.37675,0.45924 33.5,-2.12838 z m 5.29216,-36.5903 c 18.36992,-3.78519 31.49072,-11.34431 39.72818,-22.88807 8.80448,-12.33837 12.8058,-26.34657 12.28934,-43.0237 l -0.30968,-10 -1.27821,9.28767 c -2.58721,18.79913 -10.4595,37.41946 -19.32685,45.71383 -6.08694,5.69362 -14.48385,9.71408 -27.47388,13.15456 -8.76171,2.32059 -11.90764,2.637 -26.92106,2.7077 -18.62468,0.0877 -28.81391,-1.3784 -41.81199,-6.01622 -13.66183,-4.87464 -20.62698,-9.16756 -29.8536,-18.40004 -8.80797,-8.81355 -9.54959,-8.46295 -3.29577,1.5581 8.23701,13.1989 27.2066,23.75838 50.11663,27.8976 11.16367,2.01697 38.36643,2.02181 48.13689,0.009 z M 663.5,895.18627 c 9.31571,-0.84039 21.26473,-4.5869 27,-8.46561 3.63317,-2.45708 12.5,-10.86618 12.5,-11.85471 0,-0.39008 -3.81849,0.83051 -8.48553,2.71241 -5.5587,2.24145 -10.14084,3.42164 -13.28466,3.42164 -2.63952,0 -7.25853,0.85375 -10.26447,1.89722 -11.06757,3.84195 -65.71026,2.656 -79.71534,-1.73012 -3.4375,-1.07656 -6.25,-1.8473 -6.25,-1.71276 0,0.13454 4.29247,3.06826 9.53882,6.51939 8.73506,5.74605 10.18856,6.35672 17.25,7.24734 4.24115,0.53492 10.18618,1.58153 13.21118,2.3258 5.70322,1.40323 20.48245,1.2648 38.5,-0.3606 z m -13.55124,-22.94369 c 1.95086,-1.57972 2.07077,-2.20051 1.18578,-6.13929 -1.05932,-4.71472 -3.30462,-7.73424 -4.9808,-6.69831 -1.64356,1.01578 -2.54385,9.4434 -1.30035,12.17258 1.31428,2.88454 2.21,3.00144 5.09537,0.66502 z m -17.55575,-0.82437 C 632.72686,870.54823 633,868.9553 633,867.87837 633,865.45928 629.28296,858 628.0775,858 626.90032,858 625,863.60543 625,867.07779 c 0,4.78306 5.89506,8.24403 7.39301,4.34042 z m 10.23989,0.096 C 643.2382,869.93689 639.12332,859 637.92457,859 637.00377,859 634,866.51617 634,868.82024 c 0,0.97887 0.54,2.31976 1.2,2.97976 1.69368,1.69368 6.74789,1.49938 7.4329,-0.28574 z M 661.22781,868 c -0.27053,-3.47865 -3.27199,-11.9925 -4.22781,-11.9925 -1.0374,0 -4,8.64314 -4,11.66967 0,3.51171 1.08359,4.30315 5.5,4.01712 2.78287,-0.18023 2.9803,-0.44761 2.72781,-3.69429 z m 35.4594,-0.25 c 6.7983,-7.04078 10.17431,-15.2724 12.81645,-31.25 1.49408,-9.03496 1.81303,-24.41573 0.62169,-29.97985 -0.58388,-2.72704 -1.10225,-1.97591 -6.11003,8.85369 -4.64716,10.04976 -6.34503,12.64181 -11.26356,17.1955 -3.18535,2.94908 -7.9201,6.81586 -10.52165,8.59285 -5.73181,3.91511 -6.90594,5.37624 -7.7045,9.58781 -1.01652,5.36106 0.43026,10.11087 4.19279,13.76499 3.31407,3.21858 10.61992,7.48255 12.82339,7.48422 0.57299,4.4e-4 2.88843,-1.91171 5.14542,-4.24921 z m -83.87443,-0.50043 c 0.31345,-3.24101 -3.55926,-11.78399 -7.8196,-17.24957 l -1.94871,-2.5 -0.0222,9.05887 c -0.0229,9.31481 0.59502,11.15005 4.47776,13.29984 3.2208,1.78327 4.9711,0.92369 5.31278,-2.60914 z M 622.8,869.8 c 1.81013,-1.81013 1.37108,-5.80029 -1.17331,-10.66329 l -2.28293,-4.36329 -2.17188,5.04867 c -2.16589,5.03476 -2.76914,9.24732 -1.50521,10.51124 1.10483,1.10484 5.84993,0.75007 7.13333,-0.53333 z m -30.09797,-4.39593 c 2.86111,-1.82482 5.89861,-4.6649 6.75,-6.3113 1.7578,-3.39921 2.05301,-11.28058 0.52918,-14.12787 -0.56033,-1.04699 -4.49783,-4.57103 -8.75,-7.8312 -11.82518,-9.06645 -14.54913,-12.42739 -19.75776,-24.37801 -2.57557,-5.90937 -5.08574,-10.49531 -5.57815,-10.19098 -0.49242,0.30433 -0.88939,6.48927 -0.88216,13.74431 0.0223,22.37796 4.48437,38.69753 13.18298,48.21519 5.73855,6.27889 6.01456,6.29563 14.50591,0.87986 z m 76.61371,3.44623 c 3.37625,-1.77712 3.65412,-2.7182 3.64671,-12.3503 l -0.007,-9 -1.94871,2.5 c -1.0718,1.375 -3.31179,5.03799 -4.97777,8.13998 -5.05579,9.41369 -3.5531,14.3105 3.28669,10.71032 z m -13.03148,-19.42396 c 11.47702,-2.97399 21.69677,-9.46247 27.03359,-17.1635 4.07049,-5.87372 9.58681,-19.66411 10.86392,-27.15899 1.11345,-6.5345 0.54121,-16.31601 -1.11093,-18.98922 -0.70654,-1.14321 -1.72718,-1.15666 -6.20766,-0.0818 -12.61512,3.02632 -26.37826,10.39212 -33.98145,18.1863 -4.44023,4.55177 -9.80364,14.6288 -9.99594,18.78088 -0.16663,3.59784 -1.75527,-4.49152 -1.82816,-9.30902 -0.0912,-6.02926 -1.82798,-3.3419 -2.63001,4.06954 l -0.72932,6.73948 -1.715,-6 c -3.91183,-13.68577 -7.89687,-19.07815 -18.4833,-25.01081 -6.657,-3.73059 -18.52566,-7.84986 -25.6266,-8.89426 -5.37064,-0.7899 -5.61759,-0.47359 -6.49752,8.32239 -1.1659,11.65463 4.0771,26.81412 13.76733,39.80653 5.5389,7.42642 9.90281,10.97549 16.85679,13.70924 11.28254,4.43541 29.49614,5.78873 40.28426,2.99325 z M 950.24317,839.25 c 10.22966,-15.3129 16.25785,-26.23966 23.83701,-43.20719 3.63297,-8.13314 3.80917,-8.34388 4.59877,-5.5 0.45158,1.62646 0.82105,7.34469 0.82105,12.70719 0,5.3625 0.0701,9.75 0.15574,9.75 0.46168,0 7.16113,-15.07324 11.33372,-25.5 16.50314,-41.23919 26.17584,-85.64871 27.71584,-127.25 0.3309,-8.9375 0.9351,-16.25 1.3428,-16.25 1.6027,0 9.1182,17.15383 11.1869,25.53358 l 2.1885,8.86512 1.5383,-6.12911 c 0.846,-3.37101 1.8757,-6.46072 2.2882,-6.86602 0.4125,-0.4053 0.7637,7.1006 0.7804,16.67976 0.035,19.82192 0.9541,20.42866 3.5869,2.36679 2.3656,-16.22915 2.3457,-45.80434 -0.041,-61.45012 -2.0763,-13.60948 -6.2409,-30.28798 -10.4248,-41.75 -1.6563,-4.5375 -2.8299,-8.25 -2.6079,-8.25 0.222,0 1.9905,2.35649 3.9301,5.23665 L 1036,583.4733 v -3.85831 c 0,-6.68286 -2.9839,-24.66994 -6.07,-36.59009 -3.8712,-14.95271 -9.0583,-28.95012 -15.4624,-41.72574 C 1011.6281,495.63462 1009.4239,491 1009.5695,491 c 0.1456,0 2.3643,0.9 4.9305,2 2.5662,1.1 5.0551,2 5.5309,2 2.4256,0 -9.7108,-25.66548 -18.5738,-39.27897 L 994.80277,445.5 l 5.25453,5 5.2546,5 -2.3127,-4 C 996.08558,439.54244 977.29434,414.35718 963.13967,398.0777 929.72896,359.65156 904.87641,339.44542 868.5,321.13176 c -6.6,-3.32276 -11.65529,-6.06171 -11.23397,-6.08657 2.35321,-0.13882 28.09965,10.00369 39.26234,15.46694 22.61817,11.0698 42.86584,25.55755 61.86183,44.26378 10.15746,10.00252 10.73777,10.42131 8.62463,6.22409 -10.81925,-21.4897 -32.5364,-45.51302 -54.33036,-60.09975 C 907.83592,317.65511 904.13466,315 904.45943,315 c 0.83962,0 13.3167,6.33819 22.76304,11.56332 4.41151,2.44017 8.22233,4.43668 8.46849,4.43668 1.2702,0 -13.40554,-16.42701 -21.62707,-24.20785 C 895.56161,289.28164 874.97488,275.73561 851,265.29623 c -4.738,-2.06307 -5.01509,-2.32121 -2,-1.86321 3.31303,0.50326 3.39316,0.44948 1.5,-1.00669 -3.79136,-2.91621 -20.02754,-11.25848 -31,-15.92804 -25.81979,-10.98813 -48.26947,-15.13203 -76.89698,-14.1941 -25.48875,0.8351 -44.27022,4.40408 -56.79136,10.7919 -2.09641,1.0695 -3.81166,1.746 -3.81166,1.50331 0,-0.24269 2.58749,-2.27683 5.74998,-4.52032 3.16248,-2.2435 5.37853,-4.07908 4.92454,-4.07908 -3.4462,0 -38.40676,18.89671 -46.55938,25.16605 -1.31167,1.00867 -2.9346,1.83395 -3.6065,1.83395 -0.67191,0 -5.22372,-2.30579 -10.11514,-5.12398 -17.50085,-10.08311 -38.01304,-17.96563 -68.32259,-26.25533 -10.21891,-2.79488 -10.91084,-2.26112 -1.83317,1.41414 3.15575,1.27767 5.60575,2.45501 5.44444,2.61632 -0.16131,0.16132 -5.66829,-0.41887 -12.23774,-1.28931 -8.73549,-1.15743 -16.64593,-1.44541 -29.44444,-1.07195 -20.94087,0.61106 -27.07639,2.03124 -13.45043,3.11335 10.48795,0.8329 30.62779,3.64461 48.95043,6.83392 l 13,2.26284 -16.5,0.61166 c -22.65561,0.83985 -22.39852,0.82315 -21.80536,1.41631 0.29038,0.29039 4.19988,0.94676 8.68776,1.45862 12.46819,1.42202 20.66172,3.7522 31.6176,8.99181 13.93573,6.66469 15.9586,8.55803 5.35813,5.01501 -9.42341,-3.14962 -24.9085,-6.36094 -27.64184,-5.73242 -1.02723,0.23621 -0.01,0.88074 2.53371,1.60538 2.3375,0.66589 4.25,1.33483 4.25,1.48653 0,0.15169 -5.0625,0.10906 -11.25,-0.0947 -6.1875,-0.2038 -13.95,0.003 -17.25,0.45887 l -6,0.82941 14.44307,1.78729 c 23.72681,2.93613 49.79621,10.62836 66.88174,19.73464 5.23317,2.78918 5.40259,2.98334 2.17519,2.49281 -2.68067,-0.40743 -1.62724,0.36589 4.5,3.30342 9.1305,4.37736 19.35992,11.77412 23.14368,16.73488 l 2.57917,3.38147 6.8366,-6.32965 C 663.90182,287.05785 685.30799,275.81874 707,271.1801 c 20.79505,-4.44685 43.68502,-5.15929 63.5,-1.97642 l 8,1.28503 -17,0.63344 c -27.88314,1.03895 -48.78588,5.41397 -66,13.81404 -12.3507,6.02684 -21.58567,12.94851 -27.57493,20.66756 -6.67769,8.60631 -6.89247,9.35669 -1.37911,4.81809 6.35259,-5.22944 12.77687,-9.55354 18.45404,-12.42117 l 4.5,-2.27303 -8.09416,8.45039 c -8.00131,8.35347 -16.10287,19.36167 -20.26245,27.53213 -1.17886,2.31559 -2.14339,4.46459 -2.14339,4.77555 0,0.31096 2.8563,-1.85769 6.34732,-4.81923 17.62731,-14.9537 37.19388,-24.35554 59.13715,-28.4157 10.08839,-1.86665 45.58061,-2.15105 55.51553,-0.44485 l 5.5,0.94456 -6.5,0.13507 C 732.39211,304.8541 690.40024,318.79138 666.37422,341.26654 659.90099,347.32193 651.652,357.78333 648.4485,364 l -1.80358,3.5 -1.26903,-8.6645 c -2.319,-15.83346 -8.51575,-30.69186 -17.83543,-42.76532 -26.11449,-33.83079 -72.89281,-46.57341 -126.64572,-34.49886 -8.9055,2.00045 -12.31805,3.63206 -5.85489,2.79935 12.30548,-1.58543 40.01743,3.28213 58.20912,10.22434 10.42305,3.97759 26.94496,11.54439 26.39899,12.09037 -0.20987,0.20987 -3.70402,-0.5147 -7.76477,-1.61016 -17.28844,-4.66383 -25.25947,-5.52337 -51.38319,-5.5408 -20.05631,-0.0134 -26.77973,0.33733 -34,1.77357 -19.67267,3.91324 -36.30496,9.58551 -54,18.41614 -10.14165,5.06115 -30.01778,17.21362 -28.22504,17.25708 0.42623,0.0103 3.90429,-1.55711 7.72903,-3.48322 20.77431,-10.46177 43.85727,-16.53089 74.46759,-19.57947 20.03289,-1.99514 40.04128,0.2277 59.22273,6.57937 7.98822,2.64519 30.83815,13.30298 30.10117,14.03996 -0.22492,0.22493 -3.98342,-1.13111 -8.35222,-3.0134 -29.11257,-12.54315 -68.191,-14.1131 -96.67693,-3.88393 -9.4494,3.39324 -17.70453,7.54446 -25.76633,12.95702 -11.27171,7.56764 -12.18032,8.71965 -3.90039,4.94519 4.17979,-1.90538 11.60479,-4.69839 16.5,-6.20669 8.36355,-2.57696 10.01624,-2.74057 27.40039,-2.71267 10.96855,0.0176 19.72132,0.48016 21.5,1.13619 2.61386,0.96407 2.2824,1.03567 -2.57528,0.55632 -7.62264,-0.75221 -21.58143,1.24903 -30.24388,4.33598 -7.49728,2.67172 -11.60353,5.12872 -6.18084,3.69833 1.65,-0.43523 7.725,-0.77535 13.5,-0.75581 17.73474,0.06 32.44482,4.48819 47.95025,14.4345 4.47452,2.87029 7.98189,5.37232 7.79414,5.56007 -0.18775,0.18774 -3.01954,-0.73308 -6.29288,-2.04629 -19.83627,-7.95797 -49.23452,-7.11647 -66.05052,1.89064 -2.69554,1.44381 -4.00099,2.39457 -2.90099,2.11279 11.3628,-2.91067 25.17248,-3.3122 36,-1.04674 7.44824,1.55841 21.02894,7.78609 26,11.92277 2.45671,2.04436 1.55041,1.79109 -5.00454,-1.39855 -13.65328,-6.64369 -21.85281,-8.47196 -37.99546,-8.47196 -11.49269,0 -15.3954,0.39983 -21.79149,2.23252 -14.88016,4.26365 -29.19849,13.05158 -37.58431,23.06753 -2.26831,2.70925 -4.1242,5.19187 -4.1242,5.51695 0,0.32507 3.18891,-1.47185 7.08647,-3.99317 23.13562,-14.96635 51.3617,-22.13854 70.81947,-17.99508 13.75048,2.92812 23.50085,8.5556 37.78297,21.80665 12.99456,12.05644 28.08207,23.80829 34.12513,26.58048 2.92272,1.34077 5.12983,2.62197 4.90468,2.84712 -0.22515,0.22515 -4.07897,-0.65351 -8.56404,-1.95257 C 558.66961,425.36298 555,424.42738 555,424.58293 c 0,0.15556 3.77499,2.56303 8.38888,5.34995 11.87232,7.17122 18.59561,6.62817 23.93019,-1.93288 1.91656,-3.07573 2.17806,-4.89403 2.15726,-15 -0.0208,-10.11402 -0.33964,-12.25672 -2.64539,-17.77879 -3.81709,-9.14161 -8.5485,-16.57287 -15.16953,-23.82558 -8.36129,-9.15901 -5.19017,-7.89856 4.66534,1.85437 12.26531,12.13765 17.88007,24.34979 20.71506,45.05539 0.61685,4.50522 1.27125,8.34101 1.45422,8.52398 0.62528,0.62527 4.67737,-1.99123 8.67013,-5.59845 2.19406,-1.9822 5.18609,-5.88256 6.64894,-8.66746 2.25785,-4.29839 2.65128,-6.27223 2.60379,-13.06346 -0.11805,-16.88109 -7.19261,-33.00641 -22.81101,-51.99404 l -4.10788,-4.99403 4.08445,3.19695 c 6.01632,4.70904 16.36593,15.98184 20.75722,22.60877 7.74904,11.69414 14.53085,29.27559 17.20266,44.59693 0.80891,4.6386 1.63768,8.60076 1.84171,8.80479 0.49698,0.49698 4.97431,-7.23215 7.07844,-12.21937 2.07244,-4.91209 4.52791,-17.21742 4.55722,-22.83797 0.0199,-3.81477 0.30715,-3.34828 3.44285,5.59099 1.88163,5.36415 3.73131,10.25488 4.11041,10.86827 0.3791,0.61339 2.10482,-3.1119 3.83494,-8.27843 9.24167,-27.59765 27.6069,-45.15455 59.81978,-57.18687 12.6085,-4.70959 33.98309,-8.76681 45.09268,-8.55926 4.92252,0.0919 4.7109,0.19333 -4.29473,2.05747 -26.41781,5.46841 -47.77312,18.27896 -62.24061,37.33669 -10.52657,13.86645 -13.8511,25.8971 -10.4189,37.70345 1.88827,6.49544 8.73797,14.79881 14.72948,17.85545 6.55532,3.34428 6.9024,3.0255 6.9024,-6.33969 0,-15.01024 4.93418,-27.42689 14.83244,-37.32514 7.16885,-7.16886 10.94938,-9.16089 5.15715,-2.7174 -8.64451,9.61645 -12.95607,20.39212 -12.97772,32.43456 -0.0143,7.94504 2.42384,12.37392 8.4318,15.31646 3.44729,1.68839 4.56981,1.78171 9.35596,0.7778 3.06231,-0.64232 6.96513,-2.3545 8.9322,-3.91858 5.33356,-4.24088 10.27106,-7.39454 10.24299,-6.54236 -0.0366,1.11157 -12.03322,13.51827 -14.97482,15.48671 l -2.5,1.67295 2.5,0.0406 c 4.03891,0.0656 12.69653,-2.56735 17.26399,-5.25023 2.32981,-1.36851 8.26106,-5.93992 13.18057,-10.15869 10.63822,-9.1229 14.74521,-11.6251 24.05544,-14.65583 14.60503,-4.75434 29.23703,-2.2558 51.66388,8.82207 7.17026,3.54179 12.85818,6.61827 12.63982,6.83663 -0.21836,0.21837 -2.40103,-0.20137 -4.85036,-0.93275 C 843.12234,415.85573 831,414.59037 831,415.72286 c 0,0.48513 2.1375,1.65747 4.75,2.60519 6.26565,2.27298 20.49706,9.91313 20.93989,11.24162 0.19182,0.57546 -2.24744,2.09754 -5.42056,3.3824 -8.13507,3.29406 -8.51395,4.04793 -2.03443,4.04793 7.53312,0 8.78546,0.57854 20.86231,9.63782 33.18764,24.89524 56.51107,59.28804 66.99324,98.78842 l 2.93863,11.07376 -0.45244,-15 c -0.97649,-32.37463 -10.60286,-62.2296 -29.01939,-90 -3.64745,-5.5 -5.60246,-8.83597 -4.34448,-7.41326 33.72342,38.13935 50.00038,70.72637 55.3322,110.7769 1.92712,14.47578 1.89262,55.51721 -0.0615,73.13636 -1.9381,17.47495 -4.83554,32.90014 -5.25946,28 -0.81149,-9.38013 -5.70038,-29 -7.22623,-29 -0.39097,0 -1.01268,3.99829 -1.38159,8.88509 -2.26601,30.01741 -13.38848,73.76545 -26.5972,104.61491 -10.84531,25.32961 -31.52937,62.43892 -47.89965,85.93686 -9.97543,14.31876 -9.93385,14.24703 -7.1151,12.2727 6.79398,-4.75869 20.16928,-17.11746 27.16337,-25.09896 14.58444,-16.64342 26.39283,-36.26986 33.76963,-56.12773 3.43977,-9.25962 3.55286,-9.04941 1.60098,2.97585 -0.79977,4.9273 -1.30274,9.11012 -1.1177,9.29516 0.18503,0.18504 2.44403,-3.25857 5.01999,-7.65245 9.04843,-15.43418 16.80319,-38.1145 18.21096,-53.26158 0.35286,-3.79662 0.96357,-7.10195 1.35714,-7.34519 0.99884,-0.61731 4.70376,12.76818 5.53721,20.00534 0.58937,5.11779 0.82579,5.64232 1.60789,3.56739 2.00486,-5.31896 7.23401,-26.22735 9.39553,-37.56739 l 2.28732,-12 0.0817,17.41667 c 0.0449,9.57916 0.32569,17.17268 0.62389,16.87447 1.24935,-1.24935 8.82236,-25.2914 11.90384,-37.79114 6.30216,-25.56411 8.02522,-41.06171 7.89398,-71 -0.0737,-16.82245 -0.62853,-30.06061 -1.51916,-36.25 -0.77164,-5.3625 -1.29831,-9.75 -1.17037,-9.75 0.77311,0 9.70801,12.58726 12.79326,18.0228 l 3.6765,6.4772 -0.6519,-6.5 c -2.8462,-28.38027 -12.30263,-66.05816 -23.46351,-93.48813 -2.20266,-5.41344 -3.99659,-10.1057 -3.98653,-10.42725 0.0101,-0.32154 2.52821,3.24038 5.59588,7.91538 11.30165,17.22329 19.36006,36.21809 23.75756,56 4.4979,20.2333 9.7008,64.41489 9.5745,81.30447 l -0.054,7.19553 -1.7694,-5.52828 c -2.0228,-6.32021 -7.0462,-16.10056 -10.4731,-20.39117 l -2.3319,-2.91945 -0.6301,20.41945 c -1.22676,39.74885 -5.70173,69.52416 -17.34661,115.41945 -8.53037,33.62023 -23.84175,80.43113 -37.86069,115.75 -1.35425,3.41185 0.31096,1.66362 4.76253,-5 z M 958,481.19429 c -10.82229,-22.58731 -26.92937,-49.80181 -41.74916,-70.53931 -3.47653,-4.86476 -5.8766,-8.68976 -5.33347,-8.5 0.54313,0.18976 4.19653,3.02245 8.11866,6.29486 22.14025,18.47262 38.99168,47.69554 44.52169,77.20734 0.87825,4.68689 1.44954,8.6525 1.26955,8.81247 -0.18,0.15997 -3.25227,-5.81395 -6.82727,-13.27536 z M 987.3593,457.80736 981.5,449.5 l -0.30479,4.75 c -0.16764,2.6125 -0.61764,4.72992 -1,4.70537 -0.38237,-0.0245 -2.72021,-4.38771 -5.19521,-9.69594 -9.35341,-20.0606 -27.84734,-47.9269 -42.4809,-64.00943 -3.1278,-3.4375 -5.27846,-6.25 -4.77924,-6.25 1.71093,0 24.31375,22.224 32.14484,31.60609 4.30533,5.15804 10.86796,13.93006 14.58363,19.49339 7.068,10.58265 20.11454,34.65098 19.25106,35.51446 -0.27543,0.27544 -3.13747,-3.23753 -6.36009,-7.80658 z M 770.92688,404.20887 c 4.16797,-6.04853 20.01203,-16.16985 25.3583,-16.1991 3.49455,-0.0191 -0.0792,3.76108 -5.14696,5.44432 -5.68546,1.88841 -15.36909,7.51431 -19.55872,11.36305 L 768.65901,407.5 Z m 87.7738,-26.65351 c -16.33006,-12.61617 -41.3956,-22.25507 -62.75382,-24.13184 -12.31145,-1.08182 -28.43445,1.86323 -44.06544,8.04906 -1.10389,0.43685 -1.7868,-0.003 -2.14761,-1.38248 -0.44224,-1.69113 0.33744,-2.34721 4.75258,-3.99912 30.90203,-11.56193 66.26518,-7.28613 93.83216,11.34536 8.29757,5.60802 20.01153,15.55313 18.18145,15.436 -0.55,-0.0352 -4.05969,-2.42784 -7.79932,-5.31698 z M 850.5,352.29939 c -15.33258,-7.99589 -32.97039,-12.18565 -54.70671,-12.99528 l -15.7067,-0.58503 6.2067,-2.97644 6.20671,-2.97644 10.29658,1.16281 c 5.66312,0.63956 14.21312,2.28183 19,3.64951 9.42548,2.69299 26.87409,10.8766 31.70342,14.86928 3.78919,3.13274 3.23966,3.10556 -3,-0.14841 z M 373.16766,767.75 c -24.1528,-39.33772 -43.09202,-85.66641 -52.83755,-129.25 -1.4758,-6.6 -2.98198,-12.35567 -3.34708,-12.79039 -1.65952,-1.97597 -10.88428,16.86636 -11.04642,22.56322 -0.0632,2.22126 -0.0656,2.22154 -0.91899,0.10905 -1.82633,-4.52125 -4.14397,-28.85835 -4.70267,-49.38188 -1.28059,-47.04186 5.24053,-89.25615 20.12438,-130.27467 2.43367,-6.70697 4.24902,-12.37031 4.03411,-12.58522 -0.81481,-0.81482 -14.26702,10.03519 -21.1363,17.04769 -15.20261,15.51957 -26.84843,36.46687 -31.7242,57.0622 -0.88723,3.74766 -0.35101,3.47086 2.90584,-1.5 3.88527,-5.92999 12.13213,-15.36523 15.56894,-17.81246 l 2.87915,-2.05014 -2.91205,6.49041 c -4.19864,9.35798 -9.61513,26.64669 -11.95655,38.16371 -2.12801,10.46732 -4.08151,27.48813 -3.14662,27.41643 0.30159,-0.0231 2.79835,-2.923 5.54835,-6.44415 5.20845,-6.66901 7.12586,-8.06106 5.93494,-4.30883 -0.3849,1.21274 -0.69648,11.67524 -0.69238,23.25 0.01,28.01538 2.02585,45.43919 8.23483,71.17364 2.56373,10.62591 10.09526,34.73739 11.88552,38.05036 0.3504,0.64843 0.64259,-4.97657 0.64932,-12.5 0.0123,-13.78081 1.99109,-24.5358 5.8798,-31.95766 1.27965,-2.44231 1.40681,-2.22311 3.08431,5.31695 6.87112,30.88438 21.06807,61.14892 40.44709,86.22365 6.71532,8.68901 17.8036,21.23809 18.76584,21.23809 0.26062,0 -0.42411,-1.4625 -1.52161,-3.25 z m 345.85203,-30.24048 c 8.12199,-16.78309 11.85054,-54.14915 6.33495,-63.4863 C 722.94327,669.94109 716.64342,667 710.31081,667 c -4.25254,0 -5.84345,0.58133 -9.99305,3.65154 -2.71443,2.00834 -5.88561,4.98918 -7.04709,6.62408 l -2.11176,2.97254 4.79047,9.12592 c 2.63477,5.01926 5.51134,11.82592 6.39239,15.12592 1.39011,5.20672 7.65823,41.11691 7.65823,43.8742 0,2.31155 6.33753,-5.32232 9.01969,-10.86468 z m -140.58474,-9.54287 c 1.8356,-13.48161 5.14537,-27.0707 9.47647,-38.90805 3.49926,-9.56383 3.89993,-14.9056 1.33858,-17.84606 -1.41748,-1.62729 -3.47629,-2.12783 -10.83527,-2.63428 -10.85865,-0.7473 -12.70587,0.22961 -16.98944,8.98492 -2.64619,5.40862 -2.68783,5.79017 -2.15244,19.72606 0.37117,9.66163 1.20917,16.71937 2.61776,22.04726 2.0896,7.90379 8.80057,22.55071 11.9215,26.01908 1.6219,1.80246 1.71457,1.72466 2.37019,-1.98989 0.37527,-2.12613 1.38896,-9.0557 2.25265,-15.39904 z m -286.47628,0.9285 c -5.03391,-12.77114 -11.0477,-41.84362 -10.88854,-52.63857 l 0.0701,-4.75658 1.73546,5 c 0.95451,2.75 4.34473,12.79072 7.53383,22.31271 5.55995,16.60086 7.54454,21.12071 5.55661,12.65502 C 289.15425,682.45897 286.10958,670.93864 281.571,657 c -2.95493,-9.075 -6.19871,-20.09012 -7.20842,-24.47804 -1.82874,-7.9473 -1.83854,-7.96272 -2.54159,-4 -1.23854,6.98104 -0.8352,30.62047 0.7077,41.47724 2.92383,20.5739 7.83587,37.20941 16.46613,55.76557 4.64977,9.9976 6.39875,11.84487 2.96382,3.13038 z M 399,700.52806 c 0,-3.79641 -0.92345,-5.87351 -6.11307,-13.75 -9.15082,-13.88859 -21.11857,-39.05039 -26.84691,-56.4448 -9.39155,-28.51788 -12.62359,-51.09682 -11.76848,-82.21431 0.72316,-26.31571 5.37576,-51.85247 13.26661,-72.81654 4.17725,-11.09793 2.00248,-8.13296 -3.37635,4.60314 -7.87879,18.65558 -12.84877,36.50736 -15.64938,56.21141 -1.97204,13.87458 -1.94852,42.68758 0.0465,56.99151 4.38693,31.45297 16.43835,63.53246 34.14554,90.89153 6.76687,10.45536 14.53869,20.94166 15.5455,20.97509 0.4125,0.0137 0.75,-1.98746 0.75,-4.44703 z M 766.18846,673.5 c 1.99094,-13.14167 2.27294,-18.84054 2.27621,-46 l 0.004,-31 -4.27071,-28.5 c -8.49762,-56.7078 -11.89018,-71.17769 -19.92474,-84.98273 -5.32103,-9.14262 -18.22982,-21.99633 -26.01606,-25.90504 -19.80811,-9.94372 -42.79619,-7.52842 -62.6112,6.5784 -5.24489,3.73398 -5.22233,3.15882 0.13786,-3.51572 4.51462,-5.62162 12.21815,-10.61182 19.65681,-12.73332 10.43735,-2.97673 30.91663,-0.41089 41.92066,5.25221 4.13005,2.12548 2.90435,0.13972 -2.86103,-4.63517 -6.65776,-5.51396 -15.45094,-9.74484 -24,-11.54771 -8.94692,-1.88677 -13.97852,-1.88249 -22.30259,0.0189 -9.08572,2.07542 -14.08225,5.09742 -17.94741,10.85497 -2.72926,4.0655 -3.25264,4.46258 -3.26645,2.47818 -0.03,-4.31283 -4.21027,-10.21704 -8.98767,-12.69425 -4.04823,-2.09911 -5.44178,-2.28179 -13.99588,-1.83471 -12.78145,0.66802 -23.96886,3.13713 -32.9085,7.26304 -7.9971,3.69089 -8.86512,4.83255 -2.56343,3.37151 16.35214,-3.79122 36.80553,2.45859 48.71984,14.88701 l 4.25209,4.43556 -4.78164,-3.21539 c -10.34834,-6.95871 -23.16631,-11.02249 -34.88039,-11.05842 -8.06325,-0.0247 -19.81608,2.43058 -26.02094,5.43609 -5.42533,2.62792 -13.19721,8.48357 -9.31703,7.01983 14.16161,-5.34224 22.77014,-4.56918 39.68394,3.56367 8.3268,4.00387 8.04692,4.19161 -2.14404,1.43825 -7.1665,-1.93623 -21.6856,-1.88006 -29.39556,0.11372 -6.57501,1.70028 -17.92302,6.66292 -23.64434,10.33999 l -3.5,2.24943 5.38361,-0.64134 c 8.81855,-1.05053 24.8623,-0.69687 42.77491,0.94292 11.26419,1.03116 30.91596,1.62415 59.34148,1.79063 41.49156,0.24299 42.65154,0.3034 48.88657,2.54581 12.64748,4.54863 23.96764,13.92628 28.53357,23.6373 3.22267,6.8541 4.57986,16.7585 4.57986,33.42252 0,20.84112 -5.10505,41.2317 -13.39034,53.48369 -3.68329,5.44671 -6.04754,7.3923 -20.93526,17.22795 -14.99358,9.90558 -26.29538,19.1417 -28.64837,23.41218 -0.71401,1.29586 0.89511,1.51221 11.82374,1.58973 13.6509,0.0968 21.66173,1.56862 33.00366,6.0636 8.06725,3.19717 18.4224,9.79617 23.09274,14.71623 1.89539,1.99674 3.79054,3.63044 4.21145,3.63044 0.87053,0 2.1005,-4.26334 5.00938,-17.3637 1.30768,-5.88923 2.26416,-15.00045 2.69125,-25.6363 l 0.66256,-16.5 1.2396,9.06772 c 1.714,12.53804 1.55394,36.41819 -0.33049,49.30855 l -1.57008,10.74006 3.12984,12.44184 c 1.72142,6.84301 3.39111,13.11683 3.71042,13.94183 0.76042,1.96465 2.67557,-6.93347 5.48836,-25.5 z M 672.62344,470.46107 c -1.39044,-3.6234 20.03681,-10.18878 29.92284,-9.16845 6.50226,0.67109 12.8166,3.44859 17.45372,7.67739 l 3.5,3.19182 -3.5,-1.95781 c -12.96181,-7.25049 -31.66021,-7.27982 -43.63822,-0.0684 -2.77705,1.67193 -3.20729,1.70939 -3.73834,0.32549 z m -67.25318,219.03834 c 3.62114,-7.64795 5.4182,-17.84406 3.54343,-20.10461 -2.17817,-2.62641 -7.7588,-4.58773 -11.01728,-3.87205 -2.88978,0.6347 -2.89641,0.65382 -2.89641,8.34661 0,7.42142 1.86204,17.13583 4.07834,21.27702 1.43394,2.67934 3.02624,1.25026 6.29192,-5.64697 z M 682.3046,689.25 c 4.72817,-10.54686 6.40768,-24.37896 3.11361,-25.64301 -2.96709,-1.13858 -6.91391,-0.60214 -10.16821,1.38205 -2.76736,1.68729 -3.25,2.5575 -3.25,5.85977 0,7.91626 4.69652,24.15119 6.98658,24.15119 0.40716,0 1.90027,-2.5875 3.31802,-5.75 z m -59.69565,-4.97919 c 0.83648,-2.87606 1.37916,-6.70106 1.20596,-8.5 -0.3024,-3.14084 -0.50366,-3.28292 -5.06491,-3.5756 l -4.75,-0.30479 0.022,6.30479 c 0.0146,4.18444 0.71099,7.81817 2.07075,10.80479 1.96496,4.31588 2.10907,4.41817 3.52208,2.5 0.81031,-1.1 2.15768,-4.35314 2.99416,-7.22919 z m 42.81529,4.16794 c 1.40437,-2.68943 2.05975,-5.84187 2.06625,-9.93875 l 0.01,-6 h -4.5 -4.5 l 0.0311,5.5 c 0.0365,6.45446 2.29541,15.2245 3.79287,14.72535 0.57395,-0.19132 1.96908,-2.12029 3.10029,-4.2866 z M 635.97196,685.75 c 1.02272,-2.3375 2.00992,-5.79223 2.19377,-7.67718 0.29101,-2.98364 -0.007,-3.51853 -2.30193,-4.13308 -6.85778,-1.83634 -10.15183,1.62746 -7.93515,8.34406 1.02218,3.09724 4.4142,7.7162 5.66654,7.7162 0.2845,0 1.35404,-1.9125 2.37677,-4.25 z m 15.29967,0.5 c 0.81883,-2.0625 1.79676,-5.60044 2.17317,-7.86208 0.66358,-3.98701 0.59117,-4.13073 -2.38063,-4.72509 -1.68577,-0.33715 -4.18984,-0.18535 -5.5646,0.33733 -3.63159,1.38073 -3.58196,8.56004 0.0893,12.92311 1.4239,1.6922 2.95003,3.07673 3.39142,3.07673 0.44139,0 1.47248,-1.6875 2.29132,-3.75 z M 721.5,663.7007 c -4.4,-2.3325 -9.13237,-5.00223 -10.51637,-5.93273 -4.22453,-2.84027 -10.7503,-4.70176 -20.33706,-5.80117 -5.03061,-0.57691 -13.19657,-2.01666 -18.14657,-3.19944 -7.83577,-1.87231 -12.36333,-2.18005 -35,-2.37892 -24.0302,-0.21112 -26.96613,-0.0423 -38.75228,2.22808 -7.01375,1.35108 -14.88875,3.36695 -17.5,4.47973 -6.11966,2.60786 -17.83844,10.20684 -16.4528,10.66872 0.58525,0.19509 6.1163,-0.85334 12.29122,-2.32982 8.33782,-1.99366 12.73697,-2.54761 17.09395,-2.15254 3.43496,0.31147 8.65504,-0.0657 12.59336,-0.90986 8.20902,-1.75962 48.79237,-1.09329 67.72655,1.11199 6.6,0.76871 15.77983,1.66526 20.39961,1.99233 8.89774,0.62995 25.9119,3.66922 30.10039,5.37689 5.64625,2.30201 4.01008,0.82793 -3.5,-3.15326 z m -69.48677,-42.22211 c 4.10198,-6.63714 7.29279,-8.16216 24.03827,-11.48882 22.82676,-4.53478 28.58224,-7.7654 38.56361,-21.64625 9.7308,-13.53238 16.00696,-31.63312 17.05908,-49.1992 1.40634,-23.48004 -5.09096,-38.27179 -20.87372,-47.5211 -8.31046,-4.87025 -13.25619,-5.26036 -63.80047,-5.03245 -49.67717,0.224 -52.29019,0.45565 -62.20713,5.5149 -5.93607,3.02836 -14.6004,11.581 -17.47094,17.24573 -3.34619,6.60339 -4.63705,14.89347 -2.95781,18.99547 l 1.2908,3.15313 0.62864,-5.27713 c 0.89483,-7.51168 5.24781,-16.53618 10.16052,-21.06456 6.88591,-6.34721 11.79998,-7.67282 28.05592,-7.56829 7.7,0.0495 31.775,0.19311 53.5,0.31911 47.48732,0.27541 47.51065,0.27926 56.1763,9.27386 3.25146,3.37489 7.2217,8.91132 9.04206,12.60899 2.87869,5.84746 3.28765,7.73535 3.61989,16.7105 0.47106,12.72533 -1.01373,18.80628 -8.37915,34.31676 -7.5268,15.85035 -9.49876,18.41478 -19.0443,24.76616 -9.62535,6.40449 -16.42824,9.29664 -29.12024,12.38003 -10.63225,2.583 -16.24542,5.82315 -19.20242,11.08442 -3.46939,6.17295 -2.67976,8.25505 0.92109,2.42874 z m -9.01536,-4.48257 c -1.62746,-3.04094 -7.65075,-8.76516 -11.09995,-10.54881 -3.90205,-2.01783 -15.04589,-4.39746 -20.89792,-4.46249 -2.475,-0.0275 -6.88226,-0.87286 -9.79392,-1.87857 l -5.29392,-1.82855 2.14231,2.28038 c 3.28768,3.49957 10.73585,6.24673 21.58586,7.96165 10.10875,1.59777 18.6173,4.89759 21.85597,8.47628 2.31018,2.55273 2.86771,2.55277 1.50157,1.1e-4 z m -15.70024,-34.0059 c 14.10631,-6.63075 19.67793,-24.52493 11.9147,-38.26605 -2.76252,-4.88975 -10.81082,-11.80757 -13.57152,-11.66526 -0.62745,0.0323 -0.27645,0.59484 0.77999,1.25 4.34518,2.69468 9.85345,8.30214 12.38454,12.60755 2.2442,3.81741 2.69025,5.7538 2.66827,11.58364 -0.0285,7.54892 -1.6072,11.74359 -6.33777,16.83928 -5.4147,5.83261 -13.28359,7.95717 -24.33298,6.56976 -11.49012,-1.44275 -18.78333,-6.50918 -23.44635,-16.28761 -2.89185,-6.06427 -5.19237,-4.24197 -2.88846,2.28803 2.97051,8.41932 9.32569,14.19359 18.48251,16.79309 6.59358,1.87183 18.50404,1.03412 24.34707,-1.71243 z m 77.87097,-0.0761 c 6.15799,-3.14157 10.37445,-10.09294 12.23081,-20.16399 0.53338,-2.89372 0.36777,-3.75 -0.72527,-3.75 -0.93742,0 -1.63251,1.62849 -2.05523,4.81513 -0.76794,5.78906 -4.51374,11.88892 -9.32531,15.18586 -4.92168,3.37239 -14.34765,3.95668 -20.40586,1.2649 -16.53218,-7.34558 -22.69528,-27.72271 -11.49048,-37.99114 4.02043,-3.68445 3.6296,-4.19831 -1.03143,-1.35615 -6.17655,3.76627 -10.37468,11.66332 -10.35606,19.48062 0.0203,8.51031 7.27293,18.70094 15.9175,22.36551 8.24389,3.49471 20.55152,3.56214 27.24133,0.14926 z m 12.28813,-39.86617 c 1.44188,-1.59327 1.6973,-3.32639 1.38926,-9.42661 -0.33176,-6.56975 -0.75167,-7.9372 -3.46931,-11.29782 -1.70052,-2.10286 -5.45733,-5.06089 -8.34846,-6.57339 -8.33043,-4.35808 -16.31092,-3.93059 -34.25693,1.835 -7.84921,2.52176 -17.57338,5.22176 -21.60926,6 -9.46202,1.82459 -22.18581,1.7875 -29.16203,-0.085 -3.025,-0.81194 -5.725,-1.47305 -6,-1.46913 -2.06566,0.0295 10.09274,6.22628 15.4824,7.89098 11.57418,3.5749 22.28399,4.26135 40.00214,2.56398 11.94782,-1.14459 16.72086,-1.24184 19.87031,-0.40486 4.76578,1.26652 13.64515,5.84894 13.64515,7.04191 0,1.20286 7.21934,5.87712 9.07715,5.87712 0.88708,0 2.40789,-0.87848 3.37958,-1.95218 z M 492.20078,507.86973 c 2.91457,-0.62165 7.66154,-2.17181 10.54883,-3.4448 5.50974,-2.42922 20.06365,-12.10145 26.57363,-17.66028 l 3.82324,-3.26465 -8.82324,0.19755 c -7.66985,0.17172 -8.24091,0.0759 -4.36854,-0.7328 5.33021,-1.1132 14.30437,-5.35928 16.19192,-7.66113 1.21066,-1.4764 1.08974,-1.57194 -1.14662,-0.90599 -1.375,0.40946 -6.8321,0.99499 -12.1269,1.30119 -10.9258,0.63183 -20.71443,-1.07828 -29.8731,-5.21896 -3.24836,-1.4686 -4.68122,-1.82449 -3.5,-0.8693 6.19495,5.00948 19.78899,9.34482 29.5,9.40798 8.00763,0.0521 6.20109,1.67754 -2.92451,2.63136 -5.95965,0.6229 -7.55497,1.56839 -4.57549,2.71173 0.825,0.31658 1.5,1.10179 1.5,1.74492 0,0.85106 -2.10934,0.98193 -7.75,0.48082 -17.05888,-1.51546 -28.43785,-5.93312 -36.78624,-14.2815 -3.09418,-3.09419 -4.32447,-3.91111 -3.4659,-2.30141 2.57964,4.83651 13.4781,14.61269 19.78266,17.74553 8.21395,4.08164 15.84624,5.58648 25.49944,5.02766 l 7.84614,-0.4542 -4.81305,3.00215 c -7.30202,4.55465 -15.89885,8.31634 -25.31305,11.07615 -7.03136,2.06126 -7.86058,2.501 -4.79922,2.54502 2.03543,0.0293 6.08543,-0.45539 9,-1.07704 z M 788.09272,459.693 c 2.70487,-1.41587 5.66266,-4.16343 7.65728,-7.11302 4.34448,-6.4245 4.09929,-7.57999 -0.69026,-3.25291 -10.11719,9.14027 -20.06401,10.55235 -29.45248,4.18116 -2.78875,-1.8925 -3.44241,-2.07176 -2.729,-0.7484 4.41252,8.1852 16.48234,11.50401 25.21446,6.93317 z M 528.5,458.53611 c 2.89638,-1.32623 2.75823,-1.37724 -4,-1.47685 -11.13284,-0.1641 -19.13286,-5.20797 -23.09227,-14.55926 -2.01456,-4.75797 -3.08821,-3.09191 -1.36747,2.12199 1.59886,4.84459 7.5147,11.26021 12.45974,13.51235 4.72032,2.14979 11.79452,2.32743 16,0.40177 z M 299.55655,432.5 c 18.9744,-21.59511 42.87061,-47.63786 61.90067,-67.46106 7.67647,-7.99642 15.77647,-16.52249 18,-18.94683 l 4.04278,-4.40789 -4,2.33911 c -9.51811,5.56597 -28.94542,19.20886 -40.5,28.44126 -12.67961,10.13133 -39.78686,35.9074 -47.35587,45.03033 -4.86604,5.86504 -4.61402,5.73814 11.85587,-5.96988 5.5,-3.90981 10.58917,-7.47045 11.30927,-7.91254 0.7201,-0.44209 -2.52098,3.77678 -7.2024,9.37527 -8.84338,10.57575 -18.96825,25.17487 -24.62866,35.51223 -4.07483,7.44168 -3.70452,7.08429 16.57834,-16 z m 228.11277,18.56305 c 5.92376,-2.6896 8.31337,-8.17267 4.82391,-11.06867 -1.2046,-0.99973 -2.39972,-1.0005 -5.95941,-0.004 -2.44895,0.68566 -5.60735,0.95685 -7.01866,0.60263 C 515.98292,439.70662 513,436.48609 513,433.55902 c 0,-3.71719 -2.0313,-4.22395 -4.66379,-1.1635 -3.38387,3.93398 -3.22331,10.39677 0.36421,14.6603 4.99631,5.93777 11.63031,7.33922 18.9689,4.00723 z m 260.29054,-0.68273 c 3.86366,-3.25105 6.0785,-8.38696 6.33986,-14.70125 C 794.52778,430.16912 792.67573,428 787.74313,428 c -4.19128,0 -6.39965,1.53259 -7.07515,4.9101 -0.83475,4.17373 -3.91736,5.63137 -8.80951,4.16564 -8.1178,-2.43215 -12.60151,4.82297 -6.99019,11.31089 2.61185,3.01987 7.17605,4.5322 13.80499,4.57423 5.23363,0.0332 6.64716,-0.35961 9.28659,-2.58054 z M 404.10132,439.07554 c 9.13216,-7.74175 22.6675,-16.41753 35.37236,-22.6727 C 445.5092,413.43128 450.05772,411 449.58149,411 c -0.47622,0 -4.06438,0.95009 -7.97368,2.11131 -19.3824,5.75737 -36.03833,17.52574 -48.63212,34.36142 -1.68373,2.25085 0.58602,0.53772 11.12563,-8.39719 z m 137.57956,-15.01393 c -10.7275,-26.5586 -30.70161,-39.60008 -55.36623,-36.14967 -9.2118,1.28867 -19.75986,4.26809 -25.56465,7.22105 -5.45771,2.77639 -4.59379,3.0285 2,0.58365 4.65265,-1.72511 8.04012,-2.14006 17.75,-2.17431 10.63326,-0.0375 13.01716,0.29103 20.93067,2.88454 5.40168,1.77031 11.75333,4.81479 16.0739,7.70456 7.36851,4.92836 20.74507,18.09686 24.02779,23.65406 2.83579,4.80061 2.90372,3.09731 0.14852,-3.72388 z M 305.39107,352.25 C 297.65586,342.00252 288.10051,323.05839 284.58473,311 l -2.47828,-8.5 -0.0532,5.41661 -0.0532,5.41661 -3.45837,-3.91661 c -2.84082,-3.21723 -3.46407,-3.55947 -3.49023,-1.91661 -0.0382,2.39995 4.28803,11.97371 5.84582,12.93648 0.60653,0.37485 1.10278,1.12702 1.10278,1.67148 0,0.54446 -3.00216,-0.68898 -6.67147,-2.74098 -3.66932,-2.05199 -6.28063,-3.08652 -5.80293,-2.29894 0.47771,0.78758 4.91237,6.38196 9.8548,12.43196 4.94243,6.05 9.45648,11.61989 10.03121,12.37754 0.57474,0.75764 -2.24873,-0.28115 -6.27437,-2.30842 l -7.31933,-3.68596 1.84104,3.13539 c 2.88675,4.91629 12.41283,13.47551 18.39499,16.52797 5.35215,2.731 12.23703,5.25488 14.69402,5.38658 0.68638,0.0368 -1.72422,-3.8706 -5.35689,-8.6831 z m 687.72027,0.0929 c 4.75779,-2.58952 12.28126,-9.34662 14.02106,-12.59289 1.3255,-2.47305 0.3866,-2.1994 -4.9522,1.44336 l -4.6802,3.19337 4.5685,-5.44337 c 5.5629,-6.62817 9.9261,-13.00189 12.8683,-18.7979 2.4157,-4.75878 1.8873,-4.7003 -4.6051,0.50962 -2.2926,1.83971 -4.4009,3.34492 -4.6851,3.34492 -0.2843,0 1.2184,-3.7125 3.3394,-8.25 2.1209,-4.5375 4.7704,-11.8338 5.8878,-16.21399 1.9911,-7.80547 2.1126,-11.15475 0.2329,-6.4247 -0.522,1.31378 -2.5122,5.93918 -4.4227,10.27866 l -3.4734,7.88998 -1.5193,-2.88998 -1.5193,-2.88997 -0.6884,3 c -3.2543,14.1802 -10.08057,29.59503 -17.22396,38.89431 -7.54061,9.81638 -7.32129,9.03107 -2.29792,8.2278 2.43349,-0.38913 6.55082,-1.86478 9.14962,-3.27922 z M 399.7723,282.93055 c 2.77474,-4.1632 7.38533,-10.13017 10.24577,-13.25994 5.94364,-6.50329 5.93557,-6.3697 1.27671,-21.14669 -8.80716,-27.93454 -29.50051,-49.65847 -54.79478,-57.52367 -9.80692,-3.04944 -24.13053,-3.08799 -34.95516,-0.0941 -8.69294,2.40433 -22.53036,8.86381 -27.13265,12.66586 -2.77078,2.28901 -2.59209,2.26368 3.68008,-0.52154 7.05807,-3.13422 19.20996,-6.46433 27.50145,-7.53651 6.47767,-0.83764 16.39072,0.94743 23.23141,4.18334 11.2949,5.34293 24.39069,18.05619 31.72948,30.80267 l 2.87875,5 -6.7327,-6.13215 C 369.10877,222.45313 356.98486,215.89797 347,213.30927 c -13.91107,-3.60662 -30.99427,-1.87339 -43.45729,4.4091 -5.13153,2.58676 -17.95715,12.20053 -17.23713,12.92054 0.21741,0.21742 2.92111,-1.12566 6.00822,-2.98462 9.9673,-6.002 18.48761,-8.15649 32.1862,-8.13876 14.41727,0.0186 19.44141,1.57271 31.17301,9.6424 7.18516,4.94238 28.32699,24.19695 28.32699,25.79834 0,0.3865 -2.63874,-0.60515 -5.86386,-2.20366 -3.22512,-1.59852 -7.83762,-3.12621 -10.25,-3.39486 l -4.38614,-0.48846 5.83125,3.2553 c 13.01639,7.26641 22.39835,20.63767 23.42119,33.38012 0.29192,3.63665 0.85568,6.24831 1.25282,5.80369 0.39713,-0.44462 2.9923,-4.21465 5.76704,-8.37785 z m 507.38886,-29.3537 c 2.91911,-3.25773 8.63476,-8.09523 12.70146,-10.75 6.52706,-4.26091 7.05652,-4.82546 4.51569,-4.81498 -6.2686,0.0259 -19.1121,4.78905 -23.63444,8.76518 -3.16875,2.78602 -2.75299,0.71011 0.96777,-4.83222 8.16952,-12.16902 20.75088,-21.48369 35.78754,-26.49544 6.90301,-2.3008 9.24654,-2.6116 17.10174,-2.26804 7.77634,0.34011 10.06277,0.87083 15.69309,3.64263 8.75992,4.31249 17.41579,13.11046 22.10314,22.466 l 3.61239,7.21002 -0.54658,-9 -0.54658,-9 1.98631,4.85839 c 2.84506,6.95884 5.13481,17.79295 5.82371,27.5559 0.9906,14.03623 2.6453,6.04397 2.6738,-12.91429 0.023,-15.26854 -0.175,-17.09707 -2.6522,-24.5 -7.87687,-23.53875 -25.38273,-38.83219 -50.35399,-43.99014 -17.30968,-3.57541 -35.08117,-0.40818 -51.56253,9.18947 -6.37584,3.71287 -14.57879,10.43842 -17.93424,14.70418 -2.04398,2.5985 -1.8226,2.5263 2.59634,-0.84674 11.61203,-8.86367 24.32343,-12.99152 40.00642,-12.99153 12.13201,-10e-6 19.95193,1.61237 32.5,6.70112 7.05286,2.86021 21.40807,10.65891 20.77865,11.28832 -0.15811,0.15811 -4.11049,-0.85458 -8.78306,-2.25042 -10.7661,-3.21618 -26.92484,-3.60174 -36.9785,-0.88235 C 910.37384,210.54664 894.44751,226.05485 889.1,247.18605 886.76244,256.42314 885.49252,268 886.81681,268 c 0.5368,0 2.35887,-1.575 4.04905,-3.5 3.58538,-4.08352 4.34202,-4.33802 3.71641,-1.25 -0.25071,1.2375 -0.71714,4.95 -1.03652,8.25 l -0.5807,6 4.44432,-9 c 2.51628,-5.09561 6.74682,-11.56959 9.75179,-14.92315 z m -466.92001,1.79845 c 4.12834,-2.13485 16.67821,-6.38739 18.684,-6.3311 0.86617,0.0243 -0.15511,0.95684 -2.26951,2.0723 -6.03087,3.1816 -3.73549,3.14278 3.90864,-0.0661 3.81465,-1.60133 10.88901,-3.90197 15.7208,-5.11254 4.8318,-1.21056 8.6568,-2.32183 8.5,-2.46948 C 484.62829,243.32073 480.9,243.55996 476.5,244 c -4.4,0.44004 -8.12715,0.68041 -8.28256,0.53414 -0.15541,-0.14626 2.54459,-1.2962 6,-2.5554 8.25968,-3.00997 9.16265,-3.95655 2.64406,-2.77176 -12.74807,2.31704 -24.8957,7.12567 -35.8615,14.19576 -5.74599,3.70467 -6.15268,4.76181 -0.75885,1.97256 z"
       id="path1" />
  </g>
</svg>
